<svg xmlns="http://www.w3.org/2000/svg" width="27" height="27" viewBox="0 0 27 27" fill="none">
<path d="M22.625 0.375C23.7409 0.374938 24.8147 0.801307 25.6266 1.56687C26.4386 2.33244 26.9272 3.37932 26.9927 4.49333L27 4.75V22.25C27.0001 23.3659 26.5737 24.4397 25.8081 25.2516C25.0426 26.0636 23.9957 26.5522 22.8817 26.6177L22.625 26.625H5.125C4.00907 26.6251 2.93529 26.1987 2.12337 25.4331C1.31145 24.6676 0.82276 23.6207 0.757292 22.5067L0.75 22.25V4.75C0.749938 3.63407 1.17631 2.56029 1.94187 1.74837C2.70744 0.936448 3.75432 0.44776 4.86833 0.382292L5.125 0.375H22.625ZM22.625 3.29167H9.5V23.7083H22.625C22.9822 23.7083 23.327 23.5771 23.5939 23.3398C23.8608 23.1024 24.0313 22.7754 24.0731 22.4206L24.0833 22.25V4.75C24.0833 4.39281 23.9521 4.04805 23.7148 3.78112C23.4774 3.5142 23.1504 3.34367 22.7956 3.30188L22.625 3.29167ZM19.281 9.55229C19.5321 9.80341 19.683 10.1375 19.7053 10.4919C19.7275 10.8463 19.6197 11.1967 19.4021 11.4773L19.281 11.6144L17.3969 13.5L19.281 15.3856C19.5321 15.6367 19.683 15.9708 19.7053 16.3253C19.7275 16.6797 19.6197 17.03 19.4021 17.3106L19.281 17.4477C19.0299 17.6988 18.6958 17.8496 18.3414 17.8719C17.987 17.8942 17.6366 17.7864 17.356 17.5688L17.219 17.4477L14.3023 14.531C14.0512 14.2799 13.9004 13.9458 13.8781 13.5914C13.8558 13.237 13.9636 12.8866 14.1813 12.606L14.3023 12.469L17.219 9.55229C17.4924 9.2789 17.8633 9.12531 18.25 9.12531C18.6367 9.12531 19.0076 9.2789 19.281 9.55229Z" fill="#3A3A3C"/>
</svg>